Coordinates
version=1
nRows=19
nColumns=63
inDegrees=yes

Units are S.I. units (second, meters, Newtons, ...)
If the header above contains a line with 'inDegrees', this indicates whether rotational values are in degrees (yes) or radians (no).

endheader
time	pelvis_tilt	pelvis_list	pelvis_rotation	pelvis_tx	pelvis_ty	pelvis_tz	hip_flexion_r	hip_adduction_r	hip_rotation_r	knee_angle_r	knee_angle_r_beta	ankle_angle_r	subtalar_angle_r	mtp_angle_r	hip_flexion_l	hip_adduction_l	hip_rotation_l	knee_angle_l	knee_angle_l_beta	ankle_angle_l	subtalar_angle_l	mtp_angle_l	L5_S1_Flex_Ext	L5_S1_Lat_Bending	L5_S1_axial_rotation	L4_L5_Flex_Ext	L4_L5_Lat_Bending	L4_L5_axial_rotation	L3_L4_Flex_Ext	L3_L4_Lat_Bending	L3_L4_axial_rotation	L2_L3_Flex_Ext	L2_L3_Lat_Bending	L2_L3_axial_rotation	L1_L2_Flex_Ext	L1_L2_Lat_Bending	L1_L2_axial_rotation	L1_T12_Flex_Ext	L1_T12_Lat_Bending	L1_T12_axial_rotation	Abs_r3	Abs_r2	Abs_r1	Abs_t1	Abs_t2	neck_flexion	neck_bending	neck_rotation	arm_flex_r	arm_add_r	arm_rot_r	elbow_flex_r	pro_sup_r	wrist_flex_r	wrist_dev_r	arm_flex_l	arm_add_l	arm_rot_l	elbow_flex_l	pro_sup_l	wrist_flex_l	wrist_dev_l
2.843137	-0.711937	-1.999528	113.150076	0.337268	0.500506	0.996013	8.633829	-7.030174	-15.506613	14.467662	0.252508	33.976958	15.188117	0.000000	8.048011	6.247628	-3.558655	9.710196	0.169475	27.101864	4.865594	0.000000	0.083645	-0.634235	-0.529836	0.155337	-0.843532	-0.562951	0.137420	-1.542078	-0.562951	0.095598	-1.542078	-0.463607	0.077673	-1.293331	-0.430492	0.047795	-0.982429	-0.397377	0.597468	-7.174589	-2.946790	0.000000	0.000000	16.600993	2.754629	1.644317	26.868848	-0.733860	168.477396	-2.326781	-4.657719	3.523076	-23.128914	18.829442	-10.393691	124.705056	15.773169	23.064572	0.794179	-5.463559
2.862745	-0.658952	-1.741158	113.474336	0.337034	0.501452	0.995512	8.063423	-6.869572	-16.062390	14.154048	0.247035	33.755761	15.315434	0.000000	7.754087	6.113048	-3.134626	9.702691	0.169344	27.190099	4.888578	0.000000	0.091432	-0.612580	-0.704984	0.169799	-0.814731	-0.749046	0.150214	-1.489426	-0.749046	0.104498	-1.489426	-0.616861	0.084904	-1.249173	-0.572800	0.052244	-0.948886	-0.528738	0.653091	-6.929625	-3.920912	0.000000	0.000000	16.380533	2.943075	2.811287	26.863730	1.956761	171.096147	-2.446944	-4.572227	6.492247	-23.968134	19.095744	-9.318565	116.755924	20.274585	29.592280	2.151525	-2.146517
2.882353	-0.602987	-1.469684	113.803411	0.336763	0.502255	0.994956	7.568388	-6.717226	-16.567062	13.990284	0.244177	33.667344	15.413173	0.000000	7.467004	5.955380	-2.897615	9.751096	0.170189	27.329992	5.063586	0.000000	0.095526	-0.594589	-0.853466	0.177402	-0.790803	-0.906808	0.156940	-1.445683	-0.906808	0.109177	-1.445683	-0.746783	0.088706	-1.212485	-0.693441	0.054584	-0.921018	-0.640100	0.682334	-6.726105	-4.746723	0.000000	0.000000	16.208463	3.155645	3.692456	26.437142	3.878499	170.355664	-1.526590	-2.688683	9.195767	-23.874863	19.182848	-8.763584	107.735192	24.999477	36.564225	3.456555	1.291910
2.901961	-0.554273	-1.210652	114.115433	0.336518	0.502874	0.994299	7.174514	-6.582184	-16.982171	13.968360	0.243794	33.712095	15.471071	0.000000	7.204443	5.785952	-2.887304	9.852941	0.171966	27.504974	5.397622	0.000000	0.097060	-0.583392	-0.970888	0.180251	-0.775911	-1.031568	0.159461	-1.418459	-1.031568	0.110930	-1.418459	-0.849527	0.090130	-1.189652	-0.788846	0.055460	-0.903674	-0.728166	0.693293	-6.599443	-5.399787	0.000000	0.000000	16.088920	3.375881	4.253395	25.662432	5.083325	166.903622	0.242785	0.732434	11.574621	-22.946246	19.128704	-8.727325	97.990425	29.826207	43.864213	4.689936	4.817561
2.921569	-0.528812	-0.966240	114.390489	0.336306	0.503337	0.993494	6.871436	-6.477691	-17.303999	14.074746	0.245651	33.882810	15.499935	0.000000	6.947387	5.620795	-3.102326	9.980722	0.174196	27.682180	5.864965	0.000000	0.095098	-0.580382	-1.052643	0.176606	-0.771908	-1.118433	0.156236	-1.411140	-1.118433	0.108687	-1.411140	-0.921063	0.088308	-1.183515	-0.855273	0.054339	-0.899011	-0.789482	0.679273	-6.565396	-5.854485	0.000000	0.000000	15.997980	3.574100	4.463514	24.593757	5.590999	160.787009	2.768131	5.836292	13.478411	-21.351260	18.974549	-9.156515	87.805646	34.605264	51.594723	5.758815	8.296601
2.941176	-0.533027	-0.754470	114.602637	0.336123	0.503672	0.992509	6.661854	-6.415855	-17.525033	14.285506	0.249329	34.149093	15.517638	0.000000	6.694789	5.480627	-3.503586	10.098198	0.176247	27.831041	6.406494	0.000000	0.092404	-0.585484	-1.097616	0.171604	-0.778694	-1.166217	0.151811	-1.423546	-1.166217	0.105609	-1.423546	-0.960414	0.085806	-1.193919	-0.891813	0.052800	-0.906915	-0.823212	0.660034	-6.623112	-6.104609	0.000000	0.000000	15.916990	3.727096	4.369974	23.304892	5.490125	153.136600	5.836637	11.983676	14.778340	-19.168637	18.734518	-9.946848	78.269491	39.123085	59.472435	6.664840	11.630940
2.960784	-0.556977	-0.564841	114.767073	0.335903	0.503918	0.991385	6.518027	-6.387859	-17.679861	14.575717	0.254394	34.480285	15.527871	0.000000	6.446821	5.361895	-4.012077	10.210830	0.178213	27.944017	6.968630	0.000000	0.089111	-0.594918	-1.107825	0.165488	-0.791241	-1.177064	0.146401	-1.446484	-1.177064	0.101845	-1.446484	-0.969347	0.082749	-1.213157	-0.900108	0.050918	-0.921528	-0.830869	0.636511	-6.729833	-6.161393	0.000000	0.000000	15.827453	3.818835	4.022619	21.863431	4.832848	144.038384	9.346880	19.152209	15.505361	-16.517862	18.542340	-10.941118	70.243990	43.148265	66.651652	6.884574	14.422388
2.980392	-0.591202	-0.383195	114.884805	0.335606	0.504110	0.990170	6.412839	-6.380747	-17.782877	14.922749	0.260451	34.834014	15.523671	0.000000	6.187855	5.264762	-4.513477	10.301154	0.179789	28.005214	7.434171	0.000000	0.084369	-0.604666	-1.087392	0.156681	-0.804206	-1.155354	0.138610	-1.470186	-1.155354	0.096425	-1.470186	-0.951468	0.078345	-1.233036	-0.883506	0.048208	-0.936628	-0.815544	0.602638	-6.840107	-6.047748	0.000000	0.000000	15.715558	3.858690	3.527071	20.350876	3.707072	133.815283	13.160223	27.046562	15.758621	-13.489670	18.384457	-11.964166	64.520748	46.426539	72.572280	6.392030	16.593947
3.000000	-0.615960	-0.212381	114.963778	0.335207	0.504246	0.988969	6.342317	-6.380576	-17.866979	15.303752	0.267101	35.168189	15.514720	0.000000	5.942003	5.177901	-4.971406	10.383979	0.181235	28.027755	7.791641	0.000000	0.079746	-0.610587	-1.043721	0.148096	-0.812080	-1.108954	0.131015	-1.484581	-1.108954	0.091142	-1.484581	-0.913256	0.074052	-1.245109	-0.848024	0.045567	-0.945799	-0.782791	0.569617	-6.907079	-5.804865	0.000000	0.000000	15.567944	3.832172	2.969202	18.871108	2.217287	122.946863	17.126116	35.359665	15.402303	-10.284297	18.297943	-12.866981	61.189913	48.834958	76.958165	5.209100	17.869264
3.019608	-0.615144	-0.041620	114.956503	0.334696	0.504339	0.987808	6.306331	-6.364849	-17.886338	15.713554	0.274253	35.440823	15.488043	0.000000	5.695788	5.081788	-5.427543	10.436727	0.182155	28.035188	8.083388	0.000000	0.075214	-0.608098	-0.969861	0.139680	-0.808771	-1.030478	0.123569	-1.478531	-1.030478	0.085962	-1.478531	-0.848629	0.069844	-1.240034	-0.788012	0.042977	-0.941945	-0.727396	0.537246	-6.878932	-5.394078	0.000000	0.000000	15.376414	3.709518	2.402507	17.449239	0.464813	111.469721	21.141280	43.724572	14.568140	-7.082256	18.318329	-13.486509	60.315776	50.253720	79.627646	3.508195	17.936567
3.039216	-0.577563	0.133578	114.931212	0.333997	0.504414	0.986811	6.279905	-6.327049	-17.922108	16.120625	0.281358	35.623649	15.452847	0.000000	5.473738	4.975889	-5.758957	10.497921	0.183223	28.035258	8.234887	0.000000	0.069988	-0.595308	-0.880447	0.129974	-0.791759	-0.935475	0.114983	-1.447431	-0.935475	0.079989	-1.447431	-0.770391	0.064991	-1.213951	-0.715363	0.039991	-0.922131	-0.660335	0.499916	-6.734238	-4.896781	0.000000	0.000000	15.128589	3.521922	1.896913	16.143040	-1.421624	99.836078	25.070822	51.962424	13.112415	-4.024361	18.539482	-13.688545	62.181482	50.533836	80.001723	1.903709	16.682056
3.058824	-0.491403	0.318551	114.891228	0.333098	0.504480	0.986015	6.250354	-6.251995	-17.996954	16.495483	0.287900	35.713350	15.446853	0.000000	5.275039	4.853553	-5.899336	10.562459	0.184350	28.019757	8.162526	0.000000	0.064317	-0.570896	-0.781190	0.119443	-0.759291	-0.830015	0.105666	-1.388076	-0.830015	0.073508	-1.388076	-0.683541	0.059725	-1.164171	-0.634717	0.036751	-0.884318	-0.585893	0.459410	-6.458087	-4.344745	0.000000	0.000000	14.814055	3.241586	1.434826	14.983922	-3.326880	88.449501	28.787428	59.913270	11.091916	-1.226028	18.920964	-13.371955	66.555596	49.598519	78.441128	1.014652	14.281700
3.078431	-0.370438	0.509735	114.836811	0.332042	0.504572	0.985473	6.203108	-6.145313	-18.091568	16.800246	0.293220	35.691329	15.462662	0.000000	5.094025	4.731391	-5.809207	10.618831	0.185334	27.968158	7.794980	0.000000	0.057576	-0.538323	-0.663715	0.106925	-0.715970	-0.705198	0.094592	-1.308879	-0.705198	0.065804	-1.308879	-0.580751	0.053466	-1.097749	-0.539269	0.032899	-0.833863	-0.497786	0.411263	-6.089619	-3.691386	0.000000	0.000000	14.425348	2.882379	0.932890	13.956525	-5.166724	77.784585	32.189338	67.245735	8.603355	1.235893	19.622507	-12.474127	73.330824	47.524936	74.728531	1.210953	10.790753
3.098039	-0.322682	0.634694	114.800254	0.331221	0.504554	0.985013	6.171417	-6.117282	-18.173489	17.058505	0.297727	35.651270	15.452031	0.000000	4.962358	4.687271	-5.800817	10.680998	0.186419	27.942703	7.586238	0.000000	0.050977	-0.517708	-0.569738	0.094669	-0.688552	-0.605346	0.083749	-1.258755	-0.605346	0.058261	-1.258755	-0.498521	0.047337	-1.055710	-0.462912	0.029128	-0.801930	-0.427303	0.364121	-5.856417	-3.168711	0.000000	0.000000	14.089140	2.572634	0.598977	13.142072	-6.679450	68.687082	35.151137	73.862076	5.695456	3.291449	19.860162	-12.267499	74.994207	47.137533	74.235352	0.295311	8.993084
3.117647	-0.293619	0.734611	114.783781	0.330460	0.504550	0.984779	6.126647	-6.110073	-18.285420	17.241453	0.300920	35.554735	15.469822	0.000000	4.862176	4.682174	-5.678638	10.738483	0.187422	27.887579	7.257084	0.000000	0.044122	-0.499277	-0.492985	0.081940	-0.664039	-0.523797	0.072489	-1.213942	-0.523797	0.050427	-1.213942	-0.431362	0.040972	-1.018126	-0.400550	0.025212	-0.773380	-0.369739	0.315162	-5.647922	-2.741835	0.000000	0.000000	13.744716	2.259112	0.361609	12.575137	-7.892942	61.761367	37.579875	79.537913	2.646083	4.857527	20.023587	-12.054064	76.394719	46.816418	73.343890	-0.890971	7.527804
3.137255	-0.301365	0.811899	114.788430	0.329821	0.504595	0.984763	6.060988	-6.136032	-18.418956	17.348229	0.302784	35.429482	15.516578	0.000000	4.780952	4.729229	-5.432170	10.785179	0.188237	27.775940	6.784548	0.000000	0.035863	-0.486294	-0.432586	0.066602	-0.646771	-0.459623	0.058920	-1.182375	-0.459623	0.040988	-1.182375	-0.378513	0.033303	-0.991651	-0.351476	0.020492	-0.753269	-0.324439	0.256168	-5.501055	-2.405913	0.000000	0.000000	13.420218	1.967402	0.196425	12.264868	-8.761238	57.392634	39.401531	84.092457	-0.229562	5.855695	20.172119	-11.866254	77.674215	46.595864	71.709323	-2.449669	6.211318
3.156863	-0.331436	0.852761	114.820799	0.329318	0.504660	0.984939	5.985326	-6.183881	-18.585665	17.359196	0.302975	35.289845	15.612158	0.000000	4.742990	4.798342	-5.261724	10.838249	0.189163	27.649885	6.449803	0.000000	0.029511	-0.478432	-0.398077	0.054805	-0.636314	-0.422956	0.048483	-1.163259	-0.422956	0.033728	-1.163259	-0.348317	0.027404	-0.975618	-0.323437	0.016863	-0.741091	-0.298557	0.210793	-5.412117	-2.213983	0.000000	0.000000	13.149141	1.732396	0.145121	12.227169	-9.233910	55.772466	40.488820	87.351313	-2.472729	6.097247	20.223250	-11.700819	78.528882	46.485163	69.798938	-4.058332	5.131601
3.176471	-0.379147	0.863370	114.886776	0.328930	0.504742	0.985308	5.896520	-6.248515	-18.782759	17.276289	0.301528	35.149017	15.747264	0.000000	4.742167	4.891876	-5.063042	10.893110	0.190121	27.500055	6.128993	0.000000	0.023591	-0.475302	-0.384363	0.043811	-0.632152	-0.408386	0.038758	-1.155649	-0.408386	0.026962	-1.155649	-0.336318	0.021907	-0.969236	-0.312295	0.013480	-0.736243	-0.288273	0.168510	-5.376712	-2.137714	0.000000	0.000000	12.969751	1.559956	0.144977	12.417741	-9.286110	56.741385	40.735645	88.930635	-3.676885	5.550219	20.282701	-11.543918	79.238646	46.381545	67.693454	-5.392687	4.080674
3.196078	-0.431820	0.836564	114.980708	0.328662	0.504827	0.985846	5.808880	-6.319199	-18.993206	17.102975	0.298503	35.001545	15.896112	0.000000	4.788626	4.999480	-4.837022	10.944887	0.191024	27.333016	5.828903	0.000000	0.019656	-0.475910	-0.396100	0.036503	-0.632961	-0.420856	0.032292	-1.157128	-0.420856	0.022465	-1.157128	-0.346587	0.018252	-0.970476	-0.321831	0.011231	-0.737185	-0.297075	0.140399	-5.383593	-2.202989	0.000000	0.000000	12.890214	1.471614	0.236522	12.846502	-8.888233	60.300081	39.991009	88.261863	-3.707269	4.194025	20.232170	-11.408065	79.475850	46.252180	65.934848	-6.370880	3.071494
